<?xml version="1.0" standalone="no"?>
<!DOCTYPE svg PUBLIC "-//W3C//DTD SVG 20010904//EN"
 "http://www.w3.org/TR/2001/REC-SVG-20010904/DTD/svg10.dtd">
<svg version="1.0" xmlns="http://www.w3.org/2000/svg"
 width="674.000000pt" height="630.000000pt" viewBox="0 0 674.000000 630.000000"
 preserveAspectRatio="xMidYMid meet">

<g transform="translate(0.000000,630.000000) scale(0.100000,-0.100000)"
fill="#000000" stroke="none">
<path d="M3045 6154 c-226 -34 -383 -69 -569 -128 -59 -19 -104 -31 -100 -26
5 5 62 31 126 59 64 27 129 57 145 65 l28 16 -30 -6 c-130 -26 -413 -133 -605
-228 -291 -145 -471 -278 -720 -532 -285 -291 -451 -524 -620 -869 -131 -266
-207 -483 -280 -800 -29 -129 -51 -335 -32 -305 6 8 31 76 57 150 47 134 72
192 61 140 -3 -14 -13 -81 -22 -150 -21 -166 -15 -699 11 -860 38 -240 89
-424 182 -660 171 -431 320 -656 663 -1001 393 -396 751 -587 1422 -759 413
-105 596 -128 867 -110 448 29 753 113 1107 303 345 186 790 537 899 710 11
18 -44 -26 -130 -105 -154 -140 -370 -321 -436 -365 -21 -14 -44 -23 -51 -20
-8 3 69 88 193 213 113 115 234 241 270 280 63 68 269 335 269 348 0 4 -75
-69 -167 -162 -225 -226 -413 -366 -699 -522 -133 -72 -333 -164 -341 -156 -2
2 58 39 134 82 372 209 605 378 823 593 97 96 129 139 209 281 l42 75 -183
-180 c-101 -100 -208 -201 -238 -226 -67 -56 -200 -149 -212 -149 -5 0 94 102
220 228 182 181 249 255 331 367 56 77 113 160 128 185 22 40 15 34 -68 -50
-52 -53 -161 -167 -244 -255 -170 -179 -272 -272 -404 -366 -206 -145 -408
-261 -616 -354 -255 -112 -253 -109 15 45 183 105 284 169 250 157 -8 -3 -79
-30 -158 -61 -79 -31 -149 -56 -155 -56 -7 0 26 21 72 46 117 62 253 145 248
150 -6 6 -90 -26 -292 -111 -278 -116 -427 -162 -715 -221 -127 -27 -150 -28
-390 -28 -284 0 -376 10 -605 69 -419 108 -790 323 -1080 627 -441 461 -631
925 -669 1628 -2 36 -2 -32 0 -150 2 -160 9 -243 23 -325 85 -463 296 -860
646 -1211 217 -218 404 -353 665 -483 303 -150 612 -226 1000 -246 63 -3 131
-8 150 -11 l35 -6 -37 -19 c-41 -21 -49 -39 -18 -39 11 0 20 -5 20 -11 0 -8
-70 -10 -247 -6 -292 6 -321 11 -633 116 -368 124 -531 203 -835 406 -375 249
-544 395 -658 567 -72 108 -132 221 -119 226 6 2 29 -6 51 -18 23 -11 41 -17
41 -14 0 4 -33 57 -74 118 -141 211 -156 225 -156 148 0 -51 -16 -30 -40 54
-106 366 -133 540 -133 874 1 696 207 1325 594 1811 205 257 458 468 769 641
303 169 523 269 657 298 246 53 648 53 963 -1 278 -47 709 -174 940 -278 189
-84 189 -62 0 34 -252 126 -560 241 -770 285 -128 27 -146 35 -129 57 18 20
84 11 274 -37 296 -75 505 -155 773 -296 90 -47 129 -63 147 -58 20 5 55 -25
263 -233 241 -240 315 -322 479 -534 359 -464 559 -1079 539 -1654 -16 -463
-144 -926 -357 -1285 l-39 -65 56 60 c94 101 242 305 294 406 115 223 172 488
186 856 22 577 -125 1144 -405 1559 -114 170 -227 301 -456 530 -563 563 -940
766 -1690 910 -127 24 -165 27 -410 29 -148 2 -283 1 -300 -1z m163 -65 c-16
-9 -271 -38 -337 -39 -45 0 -10 15 72 32 93 18 293 24 265 7z m-2183 -4350
c61 -101 128 -211 148 -244 20 -33 37 -67 37 -75 0 -20 -103 83 -156 157 -95
131 -196 365 -152 351 7 -3 62 -87 123 -189z m3140 -854 c-145 -71 -472 -172
-491 -152 -10 10 120 65 171 72 69 10 273 70 337 99 91 42 78 27 -17 -19z
m544 -259 c17 -20 -6 -34 -147 -90 -283 -114 -530 -173 -944 -226 -139 -18
-239 -35 -258 -45 -39 -20 -41 -20 -283 45 -208 56 -539 162 -577 186 -18 11
-19 13 -5 9 193 -62 482 -113 710 -126 501 -29 889 31 1310 200 83 33 157 61
166 61 9 0 22 -6 28 -14z"/>
<path d="M3170 5674 c-14 -3 -78 -14 -142 -24 -141 -24 -317 -74 -456 -129
-126 -50 -183 -79 -338 -169 -65 -38 -139 -79 -162 -91 -76 -39 -65 -5 16 51
24 16 42 32 39 34 -9 9 -153 -59 -211 -100 -220 -158 -617 -689 -727 -973 -5
-13 -6 -23 -4 -23 2 0 52 63 110 140 58 77 108 140 110 140 2 0 -32 -60 -77
-132 -45 -73 -82 -145 -83 -160 -1 -22 1 -26 12 -17 17 14 17 33 1 23 -27 -14
60 57 132 110 68 49 215 143 425 271 88 54 145 104 145 129 0 20 -28 7 -192
-91 -60 -36 -111 -63 -113 -61 -2 1 19 36 46 76 26 40 53 92 60 115 6 23 16
53 22 67 20 44 201 215 331 312 317 238 649 377 1061 444 135 22 472 25 615 6
684 -94 1252 -445 1660 -1027 82 -117 91 -125 46 -40 -111 206 -358 477 -593
651 -292 216 -623 362 -1009 445 -86 19 -138 22 -399 24 -165 2 -311 1 -325
-1z m-1412 -731 c-95 -109 -202 -233 -237 -275 -35 -43 -66 -78 -68 -78 -7 0
136 208 183 267 91 112 280 300 292 288 2 -2 -74 -93 -170 -202z"/>
<path d="M4230 5321 c239 -84 380 -153 545 -264 101 -69 329 -287 445 -426 41
-49 76 -88 78 -86 8 8 -114 190 -175 260 -225 260 -526 443 -882 536 -162 42
-166 35 -11 -20z"/>
<path d="M5856 3730 c48 -377 46 -563 -7 -843 -37 -200 -102 -397 -203 -622
-33 -73 -34 -77 -11 -50 42 50 152 282 194 411 75 230 107 457 97 689 -6 137
-32 310 -61 410 l-15 50 6 -45z"/>
<path d="M1343 3642 c-139 -50 -204 -150 -206 -317 -2 -106 17 -157 83 -229
56 -61 128 -88 236 -88 67 -1 91 4 140 26 32 15 67 35 78 44 24 21 76 92 76
104 0 4 -26 8 -58 8 -50 0 -62 -4 -83 -26 -81 -88 -246 -85 -323 6 -34 41 -41
69 -41 166 0 72 3 86 30 129 36 58 87 87 162 93 70 6 135 -19 169 -64 25 -32
30 -34 85 -34 69 0 73 8 30 66 -39 54 -58 69 -124 99 -77 36 -182 43 -254 17z"/>
<path d="M3795 3651 c-93 -23 -164 -80 -207 -169 -30 -60 -33 -75 -32 -152 0
-69 5 -95 26 -140 34 -76 76 -121 143 -154 48 -25 68 -29 138 -29 118 -1 177
22 249 94 75 74 75 89 3 89 -49 0 -59 -4 -93 -35 -49 -43 -80 -55 -148 -55
-132 0 -207 82 -207 225 1 148 78 234 211 235 65 0 115 -22 150 -67 25 -31 31
-33 89 -33 58 0 61 1 55 22 -8 31 -99 120 -144 141 -68 32 -167 44 -233 28z"/>
<path d="M2072 3328 l3 -323 188 -3 187 -2 0 45 0 45 -135 0 -135 0 0 100 0
100 115 0 115 0 0 45 0 45 -115 0 -115 0 0 90 0 90 135 0 135 0 0 45 0 45
-190 0 -190 0 2 -322z"/>
<path d="M2792 3329 l3 -324 48 -3 47 -3 0 130 0 131 43 0 42 0 71 -128 71
-127 48 -3 c26 -2 52 1 58 7 6 6 -14 52 -59 132 -41 74 -64 124 -57 126 7 3
30 18 53 34 108 78 103 251 -8 317 -44 25 -54 27 -204 30 l-158 4 2 -323z
m271 217 c67 -28 86 -80 53 -144 -19 -38 -32 -42 -138 -49 l-88 -6 0 107 0
106 70 0 c39 0 85 -6 103 -14z"/>
<path d="M4490 3325 l0 -325 163 2 162 3 0 40 0 40 -112 3 -113 3 0 279 0 280
-50 0 -50 0 0 -325z"/>
<path d="M5120 3325 l0 -325 188 2 187 3 3 43 3 42 -135 0 -136 0 0 100 0 100
115 0 115 0 0 45 0 45 -115 0 -115 0 0 90 0 90 130 0 130 0 0 45 0 45 -185 0
-185 0 0 -325z"/>
<path d="M1861 3111 c-24 -24 -27 -68 -8 -95 16 -21 73 -24 92 -5 21 21 28 71
13 91 -22 29 -72 34 -97 9z"/>
<path d="M2572 3107 c-24 -26 -27 -48 -11 -78 21 -41 86 -44 111 -5 14 21 8
66 -12 86 -27 27 -62 25 -88 -3z"/>
<path d="M3372 3114 c-33 -23 -28 -93 7 -110 52 -26 112 27 91 80 -16 44 -60
57 -98 30z"/>
<path d="M4288 3119 c-45 -26 -45 -90 1 -112 53 -26 95 0 93 56 -1 51 -51 81
-94 56z"/>
<path d="M4920 3117 c-44 -22 -39 -102 8 -114 34 -9 52 -5 75 14 24 22 22 68
-5 93 -25 23 -43 25 -78 7z"/>
<path d="M1381 2107 c-1 -14 97 -200 140 -267 81 -125 257 -288 394 -365 62
-35 52 -24 -45 47 -145 108 -334 323 -424 483 -55 98 -65 112 -65 102z"/>
</g>
</svg>
